<svg width="40" height="40" viewBox="0 0 40 40" fill="none" xmlns="http://www.w3.org/2000/svg">
<path d="M16.663 27.2018L16.6792 27.1871L16.6941 27.171L17.6426 26.1434C17.7958 26.0245 17.9973 25.953 18.1922 25.953C18.3831 25.953 18.5206 26.0197 18.6192 26.1381L18.6337 26.1555L18.6498 26.1715C18.7932 26.315 18.8683 26.5094 18.8683 26.7102C18.8683 26.8934 18.8056 27.0524 18.6498 27.2083L17.6359 28.2222C17.2478 28.6103 16.7829 28.9006 16.2655 29.124C15.744 29.3088 15.2382 29.4141 14.7044 29.4141C14.1383 29.4141 13.6027 29.3382 13.117 29.1301L13.1027 29.124L13.0882 29.1188C12.6046 28.9461 12.1383 28.6281 11.7324 28.2222L11.3789 28.5757L11.7324 28.2222C11.3408 27.8305 11.0487 27.3607 10.8246 26.8377C10.6075 26.3312 10.5 25.8303 10.5 25.2502C10.5 24.7115 10.6071 24.1757 10.8586 23.6366L10.862 23.6295L10.8651 23.6222C11.0889 23.1 11.3804 22.6308 11.7711 22.2395L15.499 18.5927C16.6252 17.5056 17.7074 16.9268 18.7855 16.783C19.8428 16.6421 20.7435 16.9503 21.5292 17.736C21.6786 17.8854 21.7478 18.042 21.7478 18.2747C21.7478 18.5073 21.6786 18.6639 21.5292 18.8133C21.4371 18.9055 21.3648 18.9547 21.2995 18.9837C21.2364 19.0118 21.1552 19.0319 21.0311 19.0319C20.756 19.0319 20.6175 18.9765 20.4979 18.8593C20.1837 18.5234 19.8172 18.2892 19.3905 18.2218C18.9602 18.1539 18.5419 18.2672 18.1499 18.4878C17.4681 18.8712 16.9516 19.2579 16.5194 19.6469L16.5106 19.6548L16.5023 19.663L12.8117 23.313L12.7946 23.33L12.7792 23.3484C12.5754 23.593 12.3701 23.8444 12.2171 24.2016C12.0623 24.5628 12.0144 24.9172 12.0144 25.2502C12.0144 25.5832 12.0623 25.9376 12.2171 26.2988C12.3619 26.6366 12.5587 26.9343 12.8098 27.1854L13.1633 26.8319L12.8098 27.1854C13.3541 27.7298 14.0105 27.9808 14.745 27.9808C15.4992 27.9808 16.1421 27.6754 16.663 27.2018Z" fill="white" stroke="white"/>
<path d="M23.6601 12.6758L23.6521 12.6832L23.6444 12.6909L22.4046 13.9307C22.2473 14.0572 22.0782 14.1261 21.8485 14.1261C21.6159 14.1261 21.4592 14.0569 21.3098 13.9075C21.1664 13.7641 21.0913 13.5696 21.0913 13.3689C21.0913 13.1857 21.154 13.0266 21.3098 12.8708L22.5671 11.6135C23.3645 10.8161 24.2456 10.4668 25.3193 10.5025C26.3551 10.5383 27.3333 10.963 28.2272 11.8569C28.6188 12.2485 28.9109 12.7184 29.135 13.2414C29.3489 13.7403 29.4613 14.2848 29.5001 14.8848C29.4981 15.4215 29.3897 15.9573 29.1756 16.4569C28.9518 16.9791 28.6603 17.4484 28.2695 17.8397L24.297 21.7311L24.2969 21.7311L24.2933 21.7347C23.7036 22.3245 23.147 22.7614 22.5809 23.0091C21.9716 23.2757 21.4333 23.4133 20.9157 23.4133C20.4773 23.4133 20.0256 23.3392 19.6626 23.1742C19.282 23.0012 18.8841 22.7156 18.5115 22.3431C18.4194 22.2509 18.3701 22.1786 18.3411 22.1134C18.3131 22.0502 18.293 21.9691 18.293 21.845C18.293 21.6123 18.3621 21.4557 18.5115 21.3063C18.6037 21.2141 18.676 21.1649 18.7412 21.1359C18.8044 21.1078 18.8855 21.0877 19.0096 21.0877C19.2778 21.0877 19.4161 21.1404 19.5337 21.2516C19.8008 21.5654 20.2478 21.7573 20.7171 21.9138C21.1444 22.0562 21.588 21.9427 21.9912 21.7292C22.3983 21.5137 22.834 21.1609 23.2961 20.6989C23.2965 20.6986 23.2968 20.6983 23.2971 20.698L27.2291 16.8065L27.2462 16.7896L27.2615 16.7712C27.4653 16.5266 27.6706 16.2752 27.8236 15.918L27.3641 15.7211L27.8236 15.918C27.9784 15.5568 28.0263 15.2024 28.0263 14.8694C28.0263 14.5364 27.9784 14.182 27.8236 13.8208L27.3959 14.0041L27.8236 13.8208C27.6806 13.4872 27.4869 13.1927 27.2402 12.9435C26.7924 12.4507 26.2094 12.1681 25.6109 12.03L25.5929 12.0258L25.5745 12.023C24.8699 11.9146 24.2362 12.1477 23.6601 12.6758Z" fill="white" stroke="white"/>
<circle cx="20" cy="20" r="19.5" stroke="white"/>
</svg>
