<svg width="51" height="50" viewBox="0 0 51 50" fill="none" xmlns="http://www.w3.org/2000/svg">
<g clip-path="url(#clip0_357_2667)">
<path d="M29.526 15.7824L29.1754 17.8594C28.7804 17.7677 28.3624 17.7062 27.9372 17.7062C27.4925 17.7062 27.0083 17.7819 26.6181 18.0188C26.1958 18.2752 25.9178 18.7034 25.9178 19.2858V21.645V22.145H26.4178H29.155L28.9951 24.1438H26.4178H25.9178V24.6438V34.5H23.0792V24.5639V24.0639H22.5792H21V22.105H22.5392H23.0392V21.605V19.6057V19.5872L23.0379 19.5688C22.9646 18.5796 23.1477 17.6147 23.636 16.8035C24.2587 15.9503 25.3276 15.4381 26.3856 15.5064L26.4097 15.5079L26.4339 15.5072C27.4778 15.4735 28.5167 15.5575 29.526 15.7824Z" fill="black" stroke="black"/>
<circle cx="25.5" cy="25" r="24.5" stroke="black"/>
</g>
<defs>
<clipPath id="clip0_357_2667">
<rect width="50" height="50" fill="white" transform="translate(0.5)"/>
</clipPath>
</defs>
</svg>
