<svg width="60" height="60" viewBox="0 0 60 60" fill="none" xmlns="http://www.w3.org/2000/svg">
<path d="M33.7 18H25.3C20.75 18 17 21.75 17 26.3V34.7C17 39.25 20.75 43 25.3 43H33.7C38.25 43 42 39.25 42 34.7V26.3C42 21.75 38.25 18 33.7 18ZM29.5 36.3C26.3 36.3 23.7 33.7 23.7 30.5C23.7 27.3 26.3 24.7 29.5 24.7C32.7 24.7 35.3 27.3 35.3 30.5C35.3 33.7 32.7 36.3 29.5 36.3ZM37.05 24.7C36.15 24.7 35.45 24 35.45 23.1C35.45 22.2 36.15 21.5 37.05 21.5C37.95 21.5 38.65 22.2 38.65 23.1C38.65 23.95 37.9 24.7 37.05 24.7Z" fill="white"/>
<circle cx="30" cy="30" r="29.5" stroke="white"/>
</svg>
