<svg width="51" height="50" viewBox="0 0 51 50" fill="none" xmlns="http://www.w3.org/2000/svg">
<g clip-path="url(#clip0_357_2675)">
<path d="M22.14 15.5H28.86C32.2239 15.5 35 18.2761 35 21.64V28.36C35 31.7239 32.2239 34.5 28.86 34.5H22.14C18.7761 34.5 16 31.7239 16 28.36V21.64C16 18.2761 18.7761 15.5 22.14 15.5ZM20.36 25C20.36 27.8361 22.6639 30.14 25.5 30.14C28.3361 30.14 30.64 27.8361 30.64 25C30.64 22.1639 28.3361 19.86 25.5 19.86C22.6639 19.86 20.36 22.1639 20.36 25ZM29.76 19.08C29.76 20.0761 30.5439 20.86 31.54 20.86C32.4961 20.86 33.32 20.0361 33.32 19.08C33.32 18.0839 32.5361 17.3 31.54 17.3C30.5439 17.3 29.76 18.0839 29.76 19.08Z" fill="black" stroke="black"/>
<circle cx="25.5" cy="25" r="24.5" stroke="black"/>
</g>
<defs>
<clipPath id="clip0_357_2675">
<rect width="50" height="50" fill="white" transform="translate(0.5)"/>
</clipPath>
</defs>
</svg>
