<svg width="26" height="26" viewBox="0 0 26 26" fill="none" xmlns="http://www.w3.org/2000/svg">
<g id="Component 5">
<path id="Vector" d="M17.488 15.156C19.204 13.792 20.304 11.724 20.304 9.348C20.348 5.3 17.048 2 13 2C8.952 2 5.652 5.3 5.652 9.348C5.652 11.724 6.752 13.792 8.468 15.156C4.684 16.696 2 20.084 2 24H4.464C4.464 19.996 8.292 16.74 13 16.74C17.708 16.74 21.536 19.996 21.536 24H24C24 20.084 21.316 16.696 17.488 15.156ZM13 4.464C15.684 4.464 17.884 6.664 17.884 9.392C17.884 12.12 15.684 14.32 13 14.32C10.316 14.32 8.116 12.12 8.116 9.392C8.116 6.664 10.316 4.464 13 4.464Z" fill="white"/>
</g>
</svg>
