<svg width="40" height="40" viewBox="0 0 40 40" fill="none" xmlns="http://www.w3.org/2000/svg">
<path d="M11.6949 11.5647L11.7149 11.5663L11.735 11.5662L28.1292 11.5H28.1296H28.13H28.1304H28.1307H28.1311H28.1315H28.1319H28.1323H28.1327H28.1332H28.1336H28.134H28.1344H28.1348H28.1352H28.1356H28.136H28.1364H28.1369H28.1373H28.1377H28.1381H28.1386H28.139H28.1394H28.1398H28.1403H28.1407H28.1411H28.1416H28.142H28.1424H28.1429H28.1433H28.1438H28.1442H28.1446H28.1451H28.1455H28.146H28.1464H28.1469H28.1473H28.1478H28.1482H28.1487H28.1492H28.1496H28.1501H28.1505H28.151H28.1515H28.1519H28.1524H28.1529H28.1533H28.1538H28.1543H28.1548H28.1552H28.1557H28.1562H28.1567H28.1572H28.1576H28.1581H28.1586H28.1591H28.1596H28.1601H28.1606H28.1611H28.1616H28.162H28.1625H28.163H28.1635H28.164H28.1645H28.165H28.1655H28.1661H28.1666H28.1671H28.1676H28.1681H28.1686H28.1691H28.1696H28.1701H28.1707H28.1712H28.1717H28.1722H28.1727H28.1733H28.1738H28.1743H28.1748H28.1754H28.1759H28.1764H28.1769H28.1775H28.178H28.1785H28.1791H28.1796H28.1802H28.1807H28.1812H28.1818H28.1823H28.1829H28.1834H28.184H28.1845H28.1851H28.1856H28.1862H28.1867H28.1873H28.1878H28.1884H28.1889H28.1895H28.1901H28.1906H28.1912H28.1917H28.1923H28.1929H28.1934H28.194H28.1946H28.1951H28.1957H28.1963H28.1969H28.1974H28.198H28.1986H28.1992H28.1997H28.2003H28.2009H28.2015H28.2021H28.2027H28.2032H28.2038H28.2044H28.205H28.2056H28.2062H28.2068H28.2074H28.208H28.2086H28.2092H28.2097H28.2103H28.2109H28.2115H28.2121H28.2127H28.2134H28.214H28.2146H28.2152H28.2158H28.2164H28.217H28.2176H28.2182H28.2188H28.2194H28.2201H28.2207H28.2213H28.2219H28.2225H28.2231H28.2238H28.2244H28.225H28.2256H28.2263H28.2269H28.2275H28.2281H28.2288H28.2294H28.23H28.2306H28.2313H28.2319H28.2325H28.2332H28.2338H28.2345H28.2351H28.2357H28.2364H28.237H28.2376H28.2383H28.2389H28.2396H28.2402H28.2409H28.2415H28.2422H28.2428H28.2435H28.2441H28.2448H28.2454H28.2461H28.2467H28.2474H28.248H28.2487H28.2493H28.25H28.2507H28.2513H28.252H28.2526H28.2533H28.254H28.2546H28.2553H28.256H28.2566H28.2573H28.258H28.2586H28.2593H28.26H28.2606H28.2613H28.262H28.2627H28.2633H28.264H28.2647H28.2654H28.266H28.2667H28.2674H28.2681H28.2688H28.2694H28.2701H28.2708H28.2715H28.2722H28.2729H28.2735H28.2742H28.2749H28.2756H28.2763H28.277H28.2777H28.2784H28.2791H28.2798H28.2804H28.2811H28.2818H28.2825H28.2832H28.2839H28.2846H28.2853H28.286H28.2867H28.2874H28.2881H28.2888H28.2895H28.2902H28.2909H28.2916H28.2923H28.2931H28.2938H28.2945H28.2952H28.2959H28.2966H28.2973H28.298H28.2987H28.2994H28.3001H28.3009H28.3016H28.3023H28.303H28.3037H28.3044H28.3052H28.3059H28.3066H28.3073H28.308H28.3087H28.3095H28.3102H28.3109H28.3116H28.3124H28.3131H28.3138H28.3145H28.3153H28.316H28.3167H28.3174H28.3182H28.3189H28.3196H28.3203H28.3211H28.3218H28.3225H28.3233H28.324H28.3247H28.3255H28.3262H28.3269H28.3277H28.3284H28.3291H28.3299H28.3306H28.3313H28.3321H28.3328H28.3336H28.3343H28.335H28.3358H28.3365H28.3373H28.338H28.3387H28.3395H28.3402H28.341H28.3417H28.3425H28.3432H28.344H28.3447H28.3454H28.3462H28.3469H28.3477H28.3484H28.3492H28.3499H28.3507H28.3514H28.3522H28.3529H28.3537H28.3544H28.3552H28.3559H28.3567H28.3575H28.3582H28.359H28.3597H28.3605H28.3612H28.362H28.3627H28.3635H28.3643H28.365H28.3658H28.3665H28.3673H28.368H28.3688H28.3696H28.3703H28.3711H28.3718H28.3726H28.3734H28.3741H28.3749H28.3756H28.3764H28.3772H28.3779H28.3787H28.3795H28.3802H28.381H28.3818H28.3825H28.3833H28.3841H28.3848H28.3856H28.3864H28.3871H28.3879H28.3887H28.3894H28.3902H28.391H28.3917H28.3925H28.3933H28.394H28.3948H28.3956H28.3963H28.3971H28.3979H28.3987H28.3994H28.4002H28.401H28.4017H28.4025H28.4033H28.4041H28.4048H28.4056H28.4064H28.4072H28.4079H28.4087H28.4095H28.4102H28.411H28.4118H28.4126H28.4133H28.4141H28.4149H28.4157H28.4164H28.4172H28.418H28.4188H28.4196H28.4203H28.4211H28.4219H28.4227H28.4234H28.4242H28.4245C29.0927 11.6104 29.5428 12.1758 29.4967 12.8171L29.4954 12.835V12.8529V19.4579C29.2362 24.4761 25.0626 28.4355 19.9946 28.5C17.8028 28.4991 15.4198 27.5145 13.5824 25.8726C11.7477 24.2331 10.5 21.9784 10.5 19.4706V12.9191V12.9187V12.9183V12.9179V12.9176V12.9172V12.9168V12.9164V12.916V12.9156V12.9152V12.9148V12.9144V12.914V12.9135V12.9131V12.9127V12.9123V12.9119V12.9115V12.9111V12.9107V12.9102V12.9098V12.9094V12.909V12.9085V12.9081V12.9077V12.9073V12.9068V12.9064V12.906V12.9055V12.9051V12.9047V12.9042V12.9038V12.9033V12.9029V12.9025V12.902V12.9016V12.9011V12.9007V12.9002V12.8998V12.8993V12.8989V12.8984V12.898V12.8975V12.897V12.8966V12.8961V12.8957V12.8952V12.8947V12.8943V12.8938V12.8933V12.8929V12.8924V12.8919V12.8915V12.891V12.8905V12.89V12.8896V12.8891V12.8886V12.8881V12.8876V12.8872V12.8867V12.8862V12.8857V12.8852V12.8847V12.8842V12.8838V12.8833V12.8828V12.8823V12.8818V12.8813V12.8808V12.8803V12.8798V12.8793V12.8788V12.8783V12.8778V12.8773V12.8768V12.8763V12.8758V12.8753V12.8748V12.8743V12.8738V12.8732V12.8727V12.8722V12.8717V12.8712V12.8707V12.8702V12.8696V12.8691V12.8686V12.8681V12.8676V12.8671V12.8665V12.866V12.8655V12.865V12.8644V12.8639V12.8634V12.8629V12.8623V12.8618V12.8613V12.8607V12.8602V12.8597V12.8591V12.8586V12.8581V12.8575V12.857V12.8565V12.8559V12.8554V12.8549V12.8543V12.8538V12.8532V12.8527V12.8522V12.8516V12.8511V12.8505V12.85V12.8494V12.8489V12.8483V12.8478V12.8472V12.8467V12.8461V12.8456V12.845V12.8445V12.8439V12.8434V12.8428V12.8423V12.8417V12.8412V12.8406V12.8401V12.8395V12.839V12.8384V12.8378V12.8373V12.8367V12.8362V12.8356V12.835V12.8345V12.8339V12.8334V12.8328V12.8322V12.8317V12.8311V12.8305V12.83V12.8294V12.8288V12.8283V12.8277V12.8271V12.8266V12.826V12.8254V12.8249V12.8243V12.8237V12.8232V12.8226V12.822V12.8214V12.8209V12.8203V12.8197V12.8192V12.8186V12.818V12.8174V12.8169V12.8163V12.8157V12.8151V12.8146V12.814V12.8134V12.8128V12.8123V12.8117V12.8111V12.8105V12.81V12.8094V12.8088V12.8082V12.8077V12.8071V12.8065V12.8059V12.8053V12.8048V12.8042V12.8036V12.803V12.8024V12.8019V12.8013V12.8007V12.8001V12.7996V12.799V12.7984V12.7978V12.7972V12.7966V12.7961V12.7955V12.7949V12.7943V12.7937V12.7932V12.7926V12.792V12.7914V12.7908V12.7903V12.7897V12.7891V12.7885V12.7879V12.7873V12.7868V12.7862V12.7856V12.785V12.7844V12.7839V12.7833V12.7827V12.7821V12.7815V12.7809V12.7804V12.7798V12.7792V12.7786V12.778V12.7775V12.7769V12.7763V12.7757V12.7751V12.7746V12.774V12.7734V12.7728V12.7722V12.7717V12.7711V12.7705V12.7699V12.7693V12.7688V12.7682V12.7676V12.767V12.7665V12.7659V12.7653V12.7647V12.7641V12.7636V12.763V12.7624V12.7618V12.7613V12.7607V12.7601V12.7595V12.759V12.7584V12.7578V12.7572V12.7567V12.7561V12.7555V12.7549V12.7544V12.7538V12.7532V12.7527V12.7521V12.7515V12.7509V12.7504V12.7498V12.7492V12.7487V12.7481V12.7475V12.747V12.7464V12.7458V12.7453V12.7447V12.7441V12.7436V12.743V12.7424V12.7419V12.7413V12.7407V12.7402V12.7396V12.7391V12.7385V12.7379V12.7374V12.7368V12.7363V12.7357V12.7351V12.7346V12.734V12.7335V12.7329V12.7324V12.7318V12.7312V12.7307V12.7301V12.7296V12.729V12.7285V12.7279V12.7274V12.7268V12.7263V12.7257V12.7252V12.7246V12.7241V12.7236V12.723V12.7225V12.7219V12.7214V12.7208V12.7203V12.7198V12.7192V12.7187V12.7181V12.7176V12.7171V12.7165V12.716V12.7155V12.7149V12.7144V12.7139V12.7133V12.7128V12.7123V12.7117V12.7112V12.7107V12.7101V12.7096V12.7091V12.7086V12.708V12.7075V12.707V12.7065V12.706V12.7054V12.7049V12.7044V12.7039V12.7034V12.7028V12.7023V12.7018V12.7013V12.7008V12.7003V12.6998V12.6993V12.6988V12.6982V12.6977V12.6972V12.6967V12.6962V12.6957V12.6952V12.6947V12.6942V12.6937V12.6932V12.6927V12.6922V12.6917V12.6912V12.6908V12.6903V12.6898V12.6893V12.6888V12.6883V12.6878V12.6873V12.6869V12.6864V12.6859V12.6854V12.6849V12.6844V12.684V12.6835V12.683V12.6825V12.6821V12.6816V12.6811V12.6807V12.6802V12.6797V12.6793V12.6788V12.6783V12.6779V12.6774V12.6769V12.6765V12.676V12.6756V12.6751V12.6747V12.6742V12.6739C10.557 12.0041 11.1364 11.5221 11.6949 11.5647ZM16.3417 16.0627L16.2962 16.0199L16.2416 15.9895C15.7376 15.7093 15.243 15.6285 14.7934 15.7366C14.3486 15.8437 14.0083 16.1211 13.7811 16.4458C13.5557 16.7678 13.4271 17.1547 13.4091 17.5284C13.3912 17.8973 13.4808 18.3082 13.7636 18.6171L13.776 18.6306L13.7894 18.6433L19.0549 23.6065L19.109 23.6575L19.1755 23.6905C19.7155 23.9586 20.3466 23.9586 20.8865 23.6905L20.9546 23.6567L21.0095 23.6043L26.1872 18.6612C26.5122 18.4087 26.636 18.0222 26.6431 17.6744C26.6505 17.3115 26.5368 16.9287 26.3209 16.6043C26.102 16.2756 25.768 15.9924 25.3257 15.8565C24.8809 15.7199 24.3685 15.7448 23.8151 15.9607L23.7245 15.996L23.6537 16.0627L19.9977 19.5112L16.3417 16.0627Z" fill="white" stroke="white"/>
<circle cx="20" cy="20" r="19.5" stroke="white"/>
</svg>
