<svg width="53" height="35" viewBox="0 0 53 35" fill="none" xmlns="http://www.w3.org/2000/svg">
<path d="M19.224 34.496C17.784 34.496 16.068 34.196 14.076 33.596L6.84 31.436C5.76 31.1 4.872 30.932 4.176 30.932C3.552 30.932 3.144 30.944 2.952 30.968L2.916 30.896L8.64 25.748C6.168 25.004 4.272 23.588 2.952 21.5C1.632 19.388 0.972 16.676 0.972 13.364C0.972 9.116 2.04 5.888 4.176 3.68C6.312 1.448 9.312 0.331998 13.176 0.331998C17.04 0.331998 20.04 1.448 22.176 3.68C24.312 5.888 25.38 9.116 25.38 13.364C25.38 17.588 24.312 20.816 22.176 23.048C20.04 25.256 17.04 26.36 13.176 26.36C11.808 26.36 10.548 26.216 9.396 25.928L8.136 27.044L16.2 29.204C17.952 29.684 19.56 29.924 21.024 29.924C22.296 29.924 23.532 29.624 24.732 29.024L26.316 28.232L26.388 28.268L24.768 31.148C23.496 33.38 21.648 34.496 19.224 34.496ZM9.576 22.76C10.392 24.704 11.592 25.676 13.176 25.676C14.76 25.676 15.948 24.704 16.74 22.76C17.556 20.816 17.964 17.672 17.964 13.328C17.964 8.984 17.556 5.852 16.74 3.932C15.948 1.988 14.76 1.016 13.176 1.016C11.592 1.016 10.392 1.988 9.576 3.932C8.784 5.852 8.388 8.984 8.388 13.328C8.388 17.672 8.784 20.816 9.576 22.76ZM45.5977 26.2461C44.9648 26.2461 44.6484 26.0703 44.6484 25.7188C44.6484 25.4609 45.1758 24.043 46.2305 21.4648L48.1816 16.7188C49.1895 14.3984 49.7051 12.9219 49.7285 12.2891C49.7285 11.6914 49.4883 11.3926 49.0078 11.3926C48.4102 11.3926 47.707 11.75 46.8984 12.4648C46.1016 13.168 45.123 14.2461 43.9629 15.6992C43.377 16.4375 42.8203 17.2285 42.293 18.0723C41.7656 18.9043 41.3379 19.6367 41.0098 20.2695C40.6816 20.8906 40.2422 21.7578 39.6914 22.8711C39.1406 24.1484 38.6484 25.2031 38.2148 26.0352L36.0527 26.1758L35.8066 25.9297L36.0527 25.209L39.5156 16.5605C40.3945 14.4746 40.8574 13.0508 40.9043 12.2891C40.9043 11.6914 40.6641 11.3926 40.1836 11.3926C39.6094 11.3926 38.7891 11.9023 37.7227 12.9219C36.668 13.9414 35.5547 15.2773 34.3828 16.9297C33.2109 18.582 32.1855 20.2754 31.3066 22.0098C30.3457 24.0957 29.7422 25.4375 29.4961 26.0352L27.334 26.1758L27.1582 25.9297L27.3691 25.2793C28.0254 23.5918 28.9395 21.1191 30.1113 17.8613C31.2832 14.6035 31.9336 12.6992 32.0625 12.1484V12.0605C32.0625 11.873 31.9746 11.7793 31.7988 11.7793C31.4355 11.8613 30.8848 12.207 30.1465 12.8164C29.4082 13.4141 28.834 13.9707 28.4238 14.4863L27.8789 13.8711C28.2891 13.3672 28.6641 12.9336 29.0039 12.5703C29.3555 12.1953 29.7949 11.7734 30.3223 11.3047C30.8496 10.8359 31.3945 10.4727 31.957 10.2148C32.5195 9.95703 33.0703 9.82812 33.6094 9.82812C34.3945 9.82812 34.7871 10.1562 34.7871 10.8125C34.7871 11.4102 34.2715 12.9688 33.2402 15.4883C33.0996 15.7812 32.9121 16.2266 32.6777 16.8242C32.4551 17.4102 32.2852 17.8379 32.168 18.1074L32.3086 18.1602C32.8125 17.375 33.2754 16.6777 33.6973 16.0684C34.1309 15.4473 34.6816 14.7324 35.3496 13.9238C36.0293 13.1035 36.6738 12.4238 37.2832 11.8848C37.8926 11.3457 38.5723 10.8828 39.3223 10.4961C40.084 10.1094 40.8164 9.91602 41.5195 9.91602C42.1523 9.91602 42.6445 10.0566 42.9961 10.3379C43.3594 10.6074 43.541 10.9824 43.541 11.4629C43.541 12.248 43.1074 13.5312 42.2402 15.3125C41.9824 15.8867 41.5371 16.8184 40.9043 18.1074L41.0625 18.1602C41.5781 17.375 42.0586 16.666 42.5039 16.0332C42.9609 15.3887 43.5234 14.668 44.1914 13.8711C44.8711 13.0625 45.5156 12.3887 46.125 11.8496C46.7344 11.3105 47.4082 10.8535 48.1465 10.4785C48.8848 10.1035 49.5938 9.91602 50.2734 9.91602C50.9531 9.91602 51.498 10.0742 51.9082 10.3906C52.3301 10.707 52.541 11.1699 52.541 11.7793C52.541 12.6113 52.084 14.0879 51.1699 16.209L49.8691 19.2676C48.7324 21.7871 48.041 23.4453 47.7949 24.2422C47.8301 24.3359 47.9004 24.418 48.0059 24.4883C49.0371 23.9609 50.2617 22.9883 51.6797 21.5703L52.2949 22.0801C51.4395 23.2051 50.3965 24.1836 49.166 25.0156C47.9355 25.8359 46.7461 26.2461 45.5977 26.2461Z" fill="white"/>
</svg>
