<svg width="26" height="26" viewBox="0 0 26 26" fill="none" xmlns="http://www.w3.org/2000/svg">
<g id="Component 7">
<path id="Vector" d="M23.9022 22.2874L19.8623 18.1597C21.3992 16.4471 22.3653 14.1637 22.3653 11.7046C22.3653 6.34731 18.018 2 12.6607 2C7.30339 2 3 6.34731 3 11.7046C3 17.0619 7.34731 21.4092 12.6607 21.4092C14.5928 21.4092 16.3932 20.8383 17.9301 19.8283L22.1018 24L23.9022 22.2874ZM5.59082 11.7046C5.59082 7.79641 8.75249 4.59082 12.7046 4.59082C16.6128 4.59082 19.8184 7.79641 19.8184 11.7046C19.8184 15.6128 16.6128 18.8184 12.7046 18.8184C8.75249 18.7745 5.59082 15.6128 5.59082 11.7046Z" fill="white"/>
</g>
</svg>
