<svg width="60" height="60" viewBox="0 0 60 60" fill="none" xmlns="http://www.w3.org/2000/svg">
<path d="M42 22.4211C41.05 22.8211 40.1 23.0711 39.05 23.2211C40.1 22.5711 40.9 21.6211 41.3 20.4211C40.3 21.0211 39.2 21.4211 38.05 21.6711C36.15 19.6211 32.9 19.4211 30.8 21.2711C29.4 22.5211 28.8 24.4211 29.25 26.2711C25.15 26.0211 21.35 24.1211 18.75 20.9711C17.4 23.2711 18.1 26.2211 20.35 27.7211C19.5 27.6711 18.7 27.4711 18 27.0711C18 29.4711 19.7 31.5211 22.1 32.0211C21.65 32.1211 21.2 32.2211 20.75 32.1711C20.45 32.1711 20.1 32.1211 19.8 32.0711C20.45 34.1211 22.4 35.5211 24.55 35.5711C22.4 37.2211 19.7 37.9711 17 37.6711C23.75 41.9211 32.75 39.9711 37.1 33.3211C38.6 31.0211 39.4 28.3211 39.4 25.5711V24.9211C40.4 24.2711 41.25 23.3711 42 22.4211Z" fill="white"/>
<circle cx="30" cy="30" r="29.5" stroke="white"/>
</svg>
