<svg width="51" height="50" viewBox="0 0 51 50" fill="none" xmlns="http://www.w3.org/2000/svg">
<g clip-path="url(#clip0_357_2671)">
<path d="M33.7097 18.4658C33.4695 18.7286 33.1896 18.9581 32.8768 19.1518L33.2107 20.0719C33.438 20.0394 33.6601 20.0013 33.8786 19.9566C33.6452 20.1635 33.402 20.3523 33.1475 20.5177L32.92 20.6656V20.9369V21.4569C32.92 23.5602 32.308 25.6252 31.1613 27.3836C28.1993 31.9114 22.4167 33.5949 17.5361 31.6204C19.0924 31.4265 20.5805 30.8236 21.8444 29.8536L22.9696 28.99L21.5516 28.9571C20.3132 28.9282 19.1749 28.2633 18.5528 27.2431C18.9577 27.2677 19.3461 27.1812 19.6582 27.1117C19.6684 27.1095 19.6785 27.1072 19.6885 27.105L19.682 26.1274C18.2627 25.8317 17.2005 24.7736 16.8917 23.4544C17.297 23.5808 17.7205 23.6507 18.1506 23.6761L19.9926 23.7844L18.4574 22.7609C17.0808 21.8432 16.5347 20.162 17.0328 18.6835C19.174 20.9601 22.1173 22.3238 25.2696 22.516L25.946 22.5572L25.7858 21.8987C25.4697 20.599 25.8901 19.2682 26.8718 18.391C28.3438 17.0954 30.6339 17.2317 31.9733 18.6768L32.1673 18.8861L32.4462 18.8255C32.8747 18.7323 33.2973 18.6138 33.7097 18.4658Z" fill="black" stroke="black"/>
<circle cx="25.5" cy="25" r="24.5" stroke="black"/>
</g>
<defs>
<clipPath id="clip0_357_2671">
<rect width="50" height="50" fill="white" transform="translate(0.5)"/>
</clipPath>
</defs>
</svg>
