<svg width="51" height="50" viewBox="0 0 51 50" fill="none" xmlns="http://www.w3.org/2000/svg">
<g clip-path="url(#clip0_357_2676)">
<path d="M22.4875 28.4387V29.2921L23.232 28.8748L29.4932 25.3654L30.2714 24.9292L29.4932 24.4931L23.232 20.9836L22.4875 20.5663V21.4197V28.4387ZM32.7613 18.7678L32.7797 18.7692H32.7981C33.347 18.7692 33.8631 19.0422 34.1687 19.5312L34.1786 19.5469L34.1895 19.5619C34.5658 20.075 34.78 20.7029 34.8528 21.3487C35.0487 23.7046 35.0491 26.0999 34.8539 28.456C34.7438 29.0992 34.4929 29.7342 34.1098 30.2567L34.1031 30.2657L34.0969 30.275C33.7705 30.7646 33.2916 31.1167 32.7252 31.2525C27.9037 31.5669 23.0824 31.5666 18.261 31.2515C17.7098 31.1525 17.233 30.8098 16.9031 30.3149L16.891 30.2968L16.8775 30.2799C16.4636 29.7626 16.2184 29.1383 16.1473 28.471C15.9513 26.154 15.9509 23.8372 16.1462 21.5202C16.2565 20.838 16.5075 20.2034 16.8902 19.6815L16.9081 19.6572L16.9228 19.631C17.1969 19.1437 17.685 18.8323 18.2484 18.7671C23.0861 18.4107 27.9237 18.411 32.7613 18.7678Z" fill="black" stroke="black"/>
<circle cx="25.5" cy="25" r="24.5" stroke="black"/>
</g>
<defs>
<clipPath id="clip0_357_2676">
<rect width="50" height="50" fill="white" transform="translate(0.5)"/>
</clipPath>
</defs>
</svg>
