<svg width="60" height="60" viewBox="0 0 60 60" fill="none" xmlns="http://www.w3.org/2000/svg">
<path d="M26.3594 34.0484V25.2747L34.1859 29.6615L26.3594 34.0484ZM38.6226 21.3365C32.5409 20.8878 26.4591 20.8878 20.3774 21.3365C19.4801 21.4362 18.6825 21.9347 18.2338 22.7323C17.6854 23.4801 17.3365 24.3774 17.1869 25.3245C16.9377 28.2657 16.9377 31.2069 17.1869 34.1481C17.2866 35.0952 17.6356 35.9925 18.2338 36.7403C18.7323 37.488 19.4801 38.0364 20.3774 38.1859C26.4591 38.5847 32.5409 38.5847 38.6226 38.1859C39.5199 37.9865 40.2677 37.4382 40.7662 36.6904C41.3146 35.9427 41.6635 35.0454 41.8131 34.1481C42.0623 31.157 42.0623 28.1162 41.8131 25.1251C41.7134 24.2278 41.4143 23.3305 40.8659 22.5828C40.3674 21.7851 39.5199 21.3365 38.6226 21.3365Z" fill="white"/>
<circle cx="30" cy="30" r="29.5" stroke="white"/>
</svg>
